<?xml version="1.0" encoding="iso-8859-1"?>
<!-- Generator: Adobe Illustrator 25.4.1, SVG Export Plug-In . SVG Version: 6.00 Build 0)  -->
<svg version="1.1" id="Layer_1" xmlns="http://www.w3.org/2000/svg" xmlns:xlink="http://www.w3.org/1999/xlink" x="0px" y="0px"
	 viewBox="0 0 45 48" style="enable-background:new 0 0 45 48;" xml:space="preserve">
<g>
	<defs>
		<rect id="SVGID_1_" width="45" height="48"/>
	</defs>
	<clipPath id="SVGID_00000036209150583330375760000014326887416214866847_">
		<use xlink:href="#SVGID_1_"  style="overflow:visible;"/>
	</clipPath>
	<path style="clip-path:url(#SVGID_00000036209150583330375760000014326887416214866847_);fill:#002361;" d="M23.003,45.02
		c1.061-0.586,2.34-1.393,3.725-2.438V30.049l-3.725-2.478V45.02z"/>
	<path style="clip-path:url(#SVGID_00000036209150583330375760000014326887416214866847_);fill:#002361;" d="M23.003,18.894
		l3.725,2.48v-6.333c-1.24-0.058-2.482-0.091-3.725-0.101V18.894z"/>
	<path style="clip-path:url(#SVGID_00000036209150583330375760000014326887416214866847_);fill:#002361;" d="M34.181,15.699
		c-1.238-0.159-2.48-0.288-3.727-0.397v8.551l3.727,2.481V15.699z"/>
	<path style="clip-path:url(#SVGID_00000036209150583330375760000014326887416214866847_);fill:#002361;" d="M30.454,32.529v6.816
		c1.253-1.246,2.515-2.687,3.727-4.326v-0.011L30.454,32.529z"/>
	<path style="clip-path:url(#SVGID_00000036209150583330375760000014326887416214866847_);fill:#002361;" d="M34.181,35.02
		c0.002-0.002,0.003-0.004,0.005-0.01l-0.005-0.002V35.02z"/>
	<path style="clip-path:url(#SVGID_00000036209150583330375760000014326887416214866847_);fill:#002361;" d="M37.902,16.261v12.552
		l0.011,0.006c1.625-3.366,2.936-7.294,3.674-11.862l-0.127-0.025C40.282,16.685,39.094,16.464,37.902,16.261"/>
	<polygon style="clip-path:url(#SVGID_00000036209150583330375760000014326887416214866847_);fill:#002361;" points="26.729,21.376 
		26.729,30.051 30.454,32.529 30.454,23.854 	"/>
	<path style="clip-path:url(#SVGID_00000036209150583330375760000014326887416214866847_);fill:#002361;" d="M34.181,26.334v8.674
		l0.005,0.002c1.332-1.801,2.598-3.854,3.717-6.172v-0.025L34.181,26.334z"/>
	<path style="clip-path:url(#SVGID_00000036209150583330375760000014326887416214866847_);fill:#002361;" d="M37.902,28.838
		c0.005-0.006,0.008-0.014,0.011-0.02l-0.011-0.005V28.838z"/>
	<path style="clip-path:url(#SVGID_00000036209150583330375760000014326887416214866847_);fill:#002361;" d="M14.829,30.615
		c1.1-0.305,2.067-0.918,2.807-1.746c-0.406-0.147-0.88-0.293-1.428-0.414C15.803,29.355,15.293,30.074,14.829,30.615"/>
	<path style="clip-path:url(#SVGID_00000036209150583330375760000014326887416214866847_);fill:#002361;" d="M8.918,28.871
		c0.74,0.828,1.71,1.443,2.811,1.746c-0.464-0.543-0.975-1.262-1.381-2.164C9.799,28.576,9.325,28.723,8.918,28.871"/>
	<path style="clip-path:url(#SVGID_00000036209150583330375760000014326887416214866847_);fill:#002361;" d="M12.737,19.835
		c-0.405,0.445-0.879,1.072-1.274,1.864c0.399,0.053,0.823,0.09,1.274,0.106V19.835z"/>
	<path style="clip-path:url(#SVGID_00000036209150583330375760000014326887416214866847_);fill:#002361;" d="M16.584,27.44
		c0.672,0.158,1.245,0.346,1.712,0.531c0.438-0.732,0.724-1.56,0.806-2.453h-2.173C16.885,26.213,16.762,26.856,16.584,27.44"/>
	<path style="clip-path:url(#SVGID_00000036209150583330375760000014326887416214866847_);fill:#002361;" d="M11.729,19.344
		c-1.101,0.303-2.07,0.919-2.811,1.747c0.408,0.146,0.881,0.293,1.43,0.415C10.753,20.606,11.264,19.886,11.729,19.344"/>
	<path style="clip-path:url(#SVGID_00000036209150583330375760000014326887416214866847_);fill:#002361;" d="M17.636,21.091
		c-0.739-0.827-1.707-1.442-2.807-1.745c0.464,0.542,0.976,1.262,1.38,2.16C16.757,21.384,17.231,21.237,17.636,21.091"/>
	<path style="clip-path:url(#SVGID_00000036209150583330375760000014326887416214866847_);fill:#002361;" d="M16.929,24.443h2.173
		c-0.082-0.892-0.367-1.722-0.806-2.453c-0.467,0.184-1.039,0.372-1.712,0.53C16.762,23.105,16.885,23.747,16.929,24.443"/>
	<path style="clip-path:url(#SVGID_00000036209150583330375760000014326887416214866847_);fill:#002361;" d="M13.812,30.131
		c0.406-0.445,0.885-1.072,1.282-1.869c-0.401-0.053-0.829-0.09-1.282-0.108V30.131z"/>
	<path style="clip-path:url(#SVGID_00000036209150583330375760000014326887416214866847_);fill:#002361;" d="M12.737,25.518h-2.033
		c0.047,0.623,0.169,1.195,0.34,1.717c0.52-0.08,1.085-0.133,1.693-0.155V25.518z"/>
	<path style="clip-path:url(#SVGID_00000036209150583330375760000014326887416214866847_);fill:#002361;" d="M13.812,27.08
		c0.61,0.021,1.179,0.074,1.701,0.154c0.17-0.521,0.293-1.093,0.339-1.716h-2.04V27.08z"/>
	<path style="clip-path:url(#SVGID_00000036209150583330375760000014326887416214866847_);fill:#002361;" d="M15.099,21.699
		c-0.397-0.801-0.878-1.432-1.286-1.875v1.98C14.268,21.789,14.698,21.752,15.099,21.699"/>
	<path style="clip-path:url(#SVGID_00000036209150583330375760000014326887416214866847_);fill:#002361;" d="M15.852,24.443
		c-0.046-0.624-0.167-1.197-0.337-1.718c-0.523,0.079-1.092,0.134-1.703,0.156v1.562H15.852z"/>
	<path style="clip-path:url(#SVGID_00000036209150583330375760000014326887416214866847_);fill:#002361;" d="M11.463,28.262
		c0.395,0.789,0.869,1.416,1.274,1.863v-1.97C12.286,28.174,11.862,28.209,11.463,28.262"/>
	<path style="clip-path:url(#SVGID_00000036209150583330375760000014326887416214866847_);fill:#002361;" d="M9.973,22.521
		c-0.675-0.158-1.247-0.346-1.717-0.53c-0.435,0.731-0.721,1.561-0.804,2.453h2.176C9.672,23.748,9.795,23.106,9.973,22.521"/>
	<path style="clip-path:url(#SVGID_00000036209150583330375760000014326887416214866847_);fill:#002361;" d="M12.737,22.881
		c-0.608-0.021-1.173-0.076-1.693-0.155c-0.171,0.521-0.293,1.093-0.34,1.717h2.033V22.881z"/>
	<path style="clip-path:url(#SVGID_00000036209150583330375760000014326887416214866847_);fill:#002361;" d="M9.628,25.518H7.452
		c0.083,0.893,0.368,1.721,0.804,2.453c0.47-0.185,1.042-0.373,1.717-0.533C9.795,26.856,9.672,26.213,9.628,25.518"/>
	<path style="clip-path:url(#SVGID_00000036209150583330375760000014326887416214866847_);fill:#002361;" d="M2.662,16.964
		c2.735,16.901,13.316,25.15,18.586,28.056V14.94c-6.229,0.058-12.435,0.725-18.457,1.996L2.662,16.964z M13.275,18.054
		c3.82,0,6.928,3.107,6.928,6.927c0,3.816-3.108,6.926-6.928,6.926c-3.819,0-6.926-3.11-6.926-6.926
		C6.349,21.161,9.456,18.054,13.275,18.054"/>
	<path style="clip-path:url(#SVGID_00000036209150583330375760000014326887416214866847_);fill:#002361;" d="M41.448,4.042
		l-0.014-0.007C35.205,2.706,28.747,2,22.125,2C15.493,2,9.027,2.708,2.793,4.042L2.766,4.049C2.326,4.158,2,4.555,2,5.03
		l0.002,3.494c0,2.295,0.139,4.461,0.39,6.515c6.474-1.369,13.113-2.054,19.751-2.054c6.63,0,13.259,0.685,19.718,2.048
		c0.248-2.05,0.388-4.216,0.388-6.509L42.25,5.03C42.25,4.543,41.906,4.136,41.448,4.042 M37.096,12.69
		c-4.845-0.92-10.411-1.202-14.969-1.202h-0.004c-4.558,0-10.125,0.282-14.968,1.202c-0.183,0.037-0.345-0.13-0.244-0.324
		l3.187-7.036c0.032-0.065,2.091-1.084,2.091-1.084c2.617-0.55,6.925-0.308,9.931,0.798h0.011c3.006-1.106,7.313-1.348,9.93-0.798
		c0,0,2.058,1.019,2.091,1.084l3.185,7.036C37.44,12.56,37.279,12.727,37.096,12.69"/>
	<path style="clip-path:url(#SVGID_00000036209150583330375760000014326887416214866847_);fill:#002361;" d="M31.231,5.453
		l1.34,3.588c-3.122-0.429-5.709-0.234-9.528,1.017v0.336c3.609-0.136,8.173-0.337,11.863,0.456l-2.011-4.625L31.231,5.453z"/>
	<path style="clip-path:url(#SVGID_00000036209150583330375760000014326887416214866847_);fill:#002361;" d="M11.636,9.041
		l1.34-3.588l-1.663,0.773l-2.011,4.625c3.689-0.794,8.253-0.593,11.861-0.456v-0.336C17.345,8.807,14.757,8.612,11.636,9.041"/>
</g>
</svg>
